<mxfile host="app.diagrams.net" agent="Mozilla/5.0 (Windows NT 10.0; Win64; x64; rv:129.0) Gecko/20100101 Firefox/129.0" version="24.7.7">
  <diagram name="Page-1" id="ePBFnmdHbq0txeNlHcNR">
    <mxGraphModel dx="1434" dy="820" grid="1" gridSize="10" guides="1" tooltips="1" connect="1" arrows="1" fold="1" page="1" pageScale="1" pageWidth="850" pageHeight="1100" math="0" shadow="0">
      <root>
        <mxCell id="0" />
        <mxCell id="1" parent="0" />
        <mxCell id="0DK1_COXwzmZboJwrOBc-30" value="" style="group" vertex="1" connectable="0" parent="1">
          <mxGeometry x="565" y="212.5" width="183.21" height="405" as="geometry" />
        </mxCell>
        <mxCell id="0DK1_COXwzmZboJwrOBc-12" value="" style="rounded=1;whiteSpace=wrap;html=1;rotation=-90;dashed=1;" vertex="1" parent="0DK1_COXwzmZboJwrOBc-30">
          <mxGeometry x="-110.89026315789475" y="110.89285714285714" width="404.9905263157895" height="183.21428571428572" as="geometry" />
        </mxCell>
        <mxCell id="0DK1_COXwzmZboJwrOBc-17" value="" style="group" vertex="1" connectable="0" parent="0DK1_COXwzmZboJwrOBc-30">
          <mxGeometry x="24.106578947368423" y="14.464285714285715" width="134.99684210526317" height="106.07142857142857" as="geometry" />
        </mxCell>
        <mxCell id="0DK1_COXwzmZboJwrOBc-5" value="DP" style="shape=image;verticalLabelPosition=bottom;labelBackgroundColor=default;verticalAlign=top;aspect=fixed;imageAspect=0;image=data:image/png,iVBORw0KGgoAAAANSUhEUgAAASwAAAEICAMAAADSnjlnAAAC8VBMVEVHcEwaw2MZv2ETvl4axGQd02wdzmkaw2IApHgZvWAbx2Ubw2MbxGQbx2UXvWEYwGEbx2Ud0GobwmMd0msbxmQawGIbyWYczGgbwWMYtZMbwmIbx2Uaw2MXsZcbxWQbyWYZwGEZw2IbyGYcymcawmMcyWYbxGMau2AXvGEaw2Mbx2YZv2IbyGUawGIaw2MHpJ0axWMbxWQZv2IbxWQawWIZwGIbxmQYvWAbx2UOtZUawWIawWIawGIbwmMbyWYbw2MawWIcyWYe2m8awWITtZoTuZ0UtZoTtJkTs5gWxacVvKAStJgYu18UtJgTtZoUtZoUuJwVwKMTs5gVxKcUtJkUu58TspcTspcUu54Tup4SsZkVwqUVwaQUt5wRtJkSs5gUtpsVw6YTtpsTt5wVvqITtZoTs5gRs5cUtZsUup4VwKQRspgSspcTtpsNt6AStZoTtJkTspcTu58UuZ0Ss5gSspcUup4TtpsUuZ0TuJ0StJkTtJkUt5wVwaUStpsUu54Ss5gTtZoStZkSspcQsq0Us5YSspcSs5gUs5kTt5wTtJkUup4VxKYTtssVv84RusoStMkVwM8Z2OkVv84UuskVwdAXydkWvMsYzt4Vvc0VvMsWw9MXxdUWvcwWvs0YzN0UvMsVv80WwtEWwM8UuskQr8wVvcwYzd0Wv84WvcsXw9MWxNMUusgWwM8WwdAUsMoWwdEXytoWwM8Wv84VvcwXx9cVvcwVvc0VsswVv88Yy9sVv88SsckZvskVv88Tr8oVs8oWwtEWvMoUuskWw9IVvMsWwtITucgWwdEWw9IUvcwVvMoVu8kWwdAVvc0Vvs0VvcsUvcsUu8oTtJkVvcsWqNcWns0VnsoVoM4YseMYqtoUncoVnswYrN0Wn8wWotAXp9cUncsWoM4Wn8sXptUWotAUnMsVn8wVoc4VnssWoM0VnsoVncoWpNIUpskVncoTnswWo9EWpNIVoM0WnsoXqdkVn8wVn8oWncoWncsWnszaCKluAAAA+3RSTlMAbFgKo///iwEkyv//uB1E5v///+A/+///Bpb/nAnA60xi+P99/6wQFbTYMvFbkQKB/yvTUnuwN/UEZXK0yvbWuf3/tbrj35Vs//+BGBXq////YP//+0Qx++wn///WEVD//8Da/6J5GvD//zcrxQ2phiP2/2ZK78vf5o+L+v+08nWunFoLHz9yVdH26f8Skxkl0v+6SOr///+bZ/z/////gIv//18Prf/////3QM7uKuX/17+F/6OoIMr/3BYIxBw23olU9XvvMdzydG5P4bWOsJBafOdWVk7b//+ArP////9z////70XM5p7CZ5P7Olsw9/+5iv/UucO3ttGnYtEAAA/aSURBVHgB7NgHcuowEMbxpViEULUieBOR6kfvpPd2/zO93uhibJixtL8j7LT9fxBviSQwM6m0JzJ7YIBl971c3isUYS1WKkv8TlUOYA2WqPqE35FfTcAq7PBIasKfSMvaMSzFiideHv/KeftZWIIdVCROEadnwBY6v/AJp1AQfIF5bC8j6oQzSKtGE2awVtvL4wI51ekCm9LtKFyMRK8P/2H9niBcgupiMIQ/2MivEy73L35Ys6HGuMrf+GGTS5XDVf7GD7s6lYRrkVa1FLjuOggITeSU6/FznFaa0JA8vXJ751M5NEZBMHJ95zNHWt00Xd75TEzFzy046LCmNOGmSNydO7rzmZuKn3vXdz5zee/Erfh5mNr5NqUqJXDGcGrnMzUVP4/giFbBy2MopFU65djOF0LO25+A/ZI9QWiE46dbDwijQIFvffw8KYwIjdVNC2x2EOQxOpbHz7PACJF4sTh+rmQOzXD83L/6aIjj50Fh9FS5BBZKVQI0xPFzrdAQx0+rV8ftyCnr4megCM1w/GTvNBri+Ekrwi0aexbFT7c6RkMcP28SQzKInwewQsnP47ZRXR7dc0FvED9ZiL2kzOFOyPjHz2H4gjZE/nvc4yehcFdIf9QgzprlAHeFgoureIfOh1jBj/ZWL2cQZ6l04XO59rOPkaH6xRnY7P5NUWS3qp6B3ZqvgiK61XsSbDc59SmSW9X7YL9SVWN4+r0PLniQeQxr/JIEN2Q8DEv3iuCIhsKwxPM9xNrxKlPP2LMkDMnLQIzdfyPvrBob14EofO/uxmUmZ5mZmZmswji1iiG7zMzM3P+8r6MFJ86kMMn3Wj6l40/S6Ou37//m2w+8dzK/kPwv8VEF55b10xBuGJX4lV9cJi+VVRRWsc2qukaAG2agVjn8q1E1vV7ylm1YPywJroi6evz6V0tyyMutXG1WQ6MJ7kjR1Kwsl/nI/eEy08kGX4MQCxkKR7BRPU99pta1Jyz3PURDNsREOi24HFWVatS0fKc5NqzWNogHo11Zi71L3c2cqzE0pR0WxIVtKQXi4hXqM/U1fo89nV3dEB9mj1Ig3pRQD6sUfeQWVrslIU661QJxmvwv0feMV1a93SYouBeIPjwc6gv1X+KZcl4DRvpDED+yp7Va0cxFOrHIs/pFrA3aEBtcIPx43xtVM2ucwhr4LsAbxiBBM/MOa8gCj9jWkKqZH6VLWMMjo+AVMzSmauacNAlr0AHvdNeNK5rZlx5h1bfZ4B0pJhqwZs4u0tMgrAeTAUgE2TPVid4NQTMzCmvMgcSQTv85VTPrqR5WZFpAolhKgThR8SjVw5oxIGFsY5agmfmF1TdnQuKY8z//Q5z1pXZYC0EJBLoFLhCv3DQz/7CiARsoSLGIC8RNF83MPix/uA1oyIBSIB67aGbuYS1ZQEU6k+eomlk7z8IlC6BjLSua2fvWrVwWW+FXLEgG1gxFM+tniu77GbjkOhOSgRnEBSLzlsu/RL5zmFuCkBxGRRRr5idFesoddVrFLplaIHrdNDP/Ecxr2CWTC8S3dTwcqfxaio14qLQgecjg5Jpnzaxfq2By9cz6YjckE2vBq2bWtbsneLpkOsYPj5qZz60zG8KE5GI7m152M+f68rgMdsic7IFkM9q2hTVzqaa7N9EHfF0yHSlGcIF48f4agyZKcMk0ZJtSIE5UnEmJQ/ezloQDQAa3B/AALlUzM70JsW9uFA4GayG2Zn7EatiYH+9LPpAC4aKZ9Wu8pkF17ggJB4TtdGDNfFvTOTZRTFSMwkFhtq26aWZ+9x9m/nRMOCjEyAbWzJ/OqE2U4dGmGcOGA0K27Q7jUS1FuSybKGbZgINCzm9H8PwRH/u76dYmgxIOir2v+AfoVonOffxT51Tg4NIyVv7QzLyvpWtYPKwCkVVYoT8quc567O34QRaIwCrWzJc19nNJfwYPsEDUbWDNfIHfwIv9X+Sd1XrbWBRGdemXmGfoda6HGcrMzMzMzN5Koy11rDSSwwa5jcoMYXifYdoKGn6do8m6L0Tfd45X7L22r1yVv0/HJRCp5NnVtes3btbJ95Znfo/iv9FrArl1O01mvfyVevPyWbCnNfOT5G4EudNgEdvOXSkQK/ECkUB+TmeImd10o3xraw9QIGT0mhjuNXk+/062uaVVCsTs9d8DENFrsrjW5vFfkNXeIT+7WAQQCBG9JovWzhz/A6XzlyNNGEAgRPSaJBobLOJ/IadQJ/topECsTJZAFINmYoFZkgKxAiYQInrVn1P3PZcj2J4UiG9XLgIKxGojKTzoMm0ehZu+IwViPlIgtiXmag95LJobbsnmECkQi5IhEI0tAbFkHIH46cfpLhB3xdUuoPTDR3IQECkQe7QXiMclz83yeJDz5LEUCMBHGGJrhs48fTLW1S4FQq6SRArEZq0F4tnzkCfG9l7IOaTFSIHYaujLy1cB8SS4OSkQCy6umpYC8Xqcq12SiQjEmdlf4QTi8C5NZ4rqnXGudglZb97K6AIqELsNDblaMG2eEhQ8vyqX2S1HCsRcQzvevnN4qlAYEYgTAIEQ0atevHwfEE8d835EIC5NI4H40GwRC8oUiPMLp4tAzKgPXeKy8HPdckHU/lXAp3XQ0IZHN02fJeULxMYduPdrZPSqlLd5h8uHrPdSIM6twk2MyOhVIT1v0sQVQEGvFIhjSIE4qoVAdJd1tUuB6JIC8fn/XCBSV8IMcaV4TfIvOwL8wGeh2Jqhgst9ns+VY5v9chknVCCOG0rpuO5wVfhht6yC9wMnRmYeUDtNlCOujozVExEI4DsQInpVMU1UJdT8/hm+WVEvEP25yq92IRBPxV97FtCsyK0ZeG596Jb0OT5XjhCIU7JZES+JgOgVzi3LzEkCrhFZbwDdrMitGWge3LYYhzkYW7Mya+aRlIHlVFeOGEdUINZ+KgQCEL0iKZlZRpKxXsbYrGAF4rVjMxRqfvUs0qyIiRHA1gwUPZbLYCjofBBfs7IDJxDX2i1iNBS2bYnsgAA2K/tRAnHqeo4YD3l9BrRZkdHrFgNCk5flWDCvyG8RgzYrRyDV9F3T5njwnQ/46BUqEC8Dl+PCtV6CmxUZvdaYVMf7ZnEIYxaI2UiBOFnr9iafJsYjBEI2K9itGTWlzyGOE8pdvyebFXD0WkOK8nKPRyBmxNesnK9hszIUuBw70eh1RTKi17evmjl+fOd1pFnZkIDo9fK7gFgBbjAUY/Q6bNSEmw6xCkhEr+hm5ceaCES/yYog6/Y1cLMit2ZUTWPaZYlCgfh6JlIgFlQ9+9/SzOog5yYgekVtzXjUKy931QJRh41eqxKIuoJDrBQ7IhBL9I1er5isGjdoBDQrgK0Zd3I+qyYbFYgz85ACUXH02tqQYYEmArFKw+j1aWdArAGUi2zNGL4EFIjKtmbUPQmJVTL+1owT2kWv9SZrg1d6HG1WtNqa0R36rA1W+6P4oteZq4GXOx4/PWRItu9XHb3KySJiXSBHlGP4kdNFZUWvj7tCYm1ovn3VGMXJVbpEryWT9cHOiUMoo1f1WzM+ODZrfQjxzcqUBeKW5bKuh1A2K8jo9SP8ZBH4EAq2qI9eT7XlSKdDKBMowWmkQHw5FYG472VZH6zoIdQqen3t2fq/EsroFS8Q+LFR1CEUnF2obmtGxxuLtH8lFBzAR6/4ySLkIRQcn/m9GoFo8igRh1A2K2qi16Jnc7IOoWxWEAJxQNXYKOAQymYFLRBisiibmEOoOHq9/DBNCTyEslnBb83Aj40iDyH8e1Z+/HSUQLwwbdYIcgaMcsBGr1vwk0X4QyibFbBAiMkinbDDIZ2+qE0IxL3nAcGGHcMKuDFglMvcPUiB+E/0OhDCnlXwcLB8rvSXdwhlswIWiHafQTS/emvExS4pEKivih9xgR+Pxsc2bPQKflhyUQOerUiBOL8F+rAoLKTi3VOMjV5TwIdFQedVI16w37PyOfBhZRpajbjBRq/HYA/LdrqN+JkzD7o1A/WwvJKhAmz0uhHysCjX9thQArRZ+bW4u4Zv5ArCAD6l+irYl6pdhw+lC+dI8jEzMzN0YWZmZmYG+dZ+o9U+yYybM1apQhN838z+7t9Xn2k8O592y6IMwnr0jqdO05+98uNPwX6sUIjs37Mya0UGYd1/xxfyyVHLmSjcmVYK1tRczu4H0Sgs+eo0oc0xoBpXgAEiu5PT8kLzsG6WH0hHuZpLGODrjdMU7KYbs7oYWXqddVg3vyjO/Ina61WG+KjjTWCAyOg9K4Xtob/ggVXD2511zyDXRQGyLb0umZczDusR8fpjonx35BmVRD0U7vtMBogdq0iEZb9q6HWsUO3rp3CZdFbKu0VY+lVDnv5sIEpYwcedb1Cw/KX2FyOlSQdNw7r5DrlqoMGhlFW8+5nCZdBZWbJ4qgjLfNXw9FCVldxZCrfGvPQ6fwWJsOxXDTXHSsnwTxTuoHVnpXyFPiz5hkcp3zHsWSdtPE3hrDsrs2agYQWsGvrThHX88Mh+CmPfWSlsX24X1s2/rRqkXue1abk2Aph2ViZdfrFFWHLVIJ3orLNS4moUxP49K8WdZBfWLWLVoBu1pGraTiHsOyvl743CkqsGaTRS/yDGnW9TuAOXWQ0QpfkbNGGJq4YT9M9O64ct77rzFMC6s7Lu6CIgLOiqodWxmuslgFVnZf4mMgrrkWfFqkE6fyRmrSQaIMAhmwGivBcIC7xqaI8T1kqHBs/dADFzPRyWXDU00X/pcp6V/HDLgwSw6KwUCtfjYclVw3/JvdFIGYDNpvadlXVb9gNhwVcNPS5hrcS1EuCAvrNSvJSAsPCrhrHIs1a1XiHAMnVnpTwZCQu/ahjsq7KWrzdeIYC2s1IqzhVhgauG/fQ/nXWs5qOO8wmg7KwUjh6QYalWDf9tf0vMeq6LEFtVnZVJR3L6sO5/8Qv6/yrDCePwh2P6zsrMBSTCwlYNIdqcZ4PZtJ8AF2sGiJlXqsO6+e6vKMjbjZTVfNxyggCKzkppyTIRFrZqCFNzrOfdOCHwzsqSaXPwsKACBf70Ap9NZWelAI6kzSTCQlYNwfr7Egagh1vCoSI4km7VhnXLSQL0DjNGzKaDBJgxExxJD+vCuvm1t5oIUIkTNhBVoPFhFvgU7CYZVuiq4W1C1BwbiEeakOcX0yaBh1nnq8KCCxS9ERtwNQIcnFSCD7MUYd1192eEmRhmvWrjDQJMPo4eZomwkKsGQH6kfu7+P2wuoodZgWGJd3HsJ8yJRpXVkrQfGuGPrsO2pIun4mE9+thHTxPoaZ+wWtxBiMPFEn6YhYZ1/4vvEyjXbrKl6SHEFWX8MAsO6+EXCNYTsVra+SAB8rMnoYdZQFjgqsF8W+p6CXHT9gJ+mAWGJVYNgdoi1kr6BsEPM0APs85Hw7r/o49JoSNmreFxguzZAXYF9tBvfgHtwldg1BqOpwAAAABJRU5ErkJggg==;fontFamily=Inter;fontSource=https%3A%2F%2Ffonts.googleapis.com%2Fcss%3Ffamily%3DInter;" vertex="1" parent="0DK1_COXwzmZboJwrOBc-17">
          <mxGeometry x="38.57052631578948" y="19.285714285714285" width="67.49842105263158" height="57.85578947368422" as="geometry" />
        </mxCell>
        <mxCell id="0DK1_COXwzmZboJwrOBc-16" value="" style="rounded=1;whiteSpace=wrap;html=1;fillColor=none;" vertex="1" parent="0DK1_COXwzmZboJwrOBc-17">
          <mxGeometry x="9.64263157894737" y="9.642857142857142" width="125.3542105263158" height="96.42857142857143" as="geometry" />
        </mxCell>
        <mxCell id="0DK1_COXwzmZboJwrOBc-15" value="" style="aspect=fixed;sketch=0;html=1;dashed=0;whitespace=wrap;verticalLabelPosition=bottom;verticalAlign=top;fillColor=#2875E2;strokeColor=#ffffff;points=[[0.005,0.63,0],[0.1,0.2,0],[0.9,0.2,0],[0.5,0,0],[0.995,0.63,0],[0.72,0.99,0],[0.5,1,0],[0.28,0.99,0]];shape=mxgraph.kubernetes.icon2;kubernetesLabel=1;prIcon=ns" vertex="1" parent="0DK1_COXwzmZboJwrOBc-17">
          <mxGeometry width="30.133223684210527" height="28.92789473684211" as="geometry" />
        </mxCell>
        <mxCell id="0DK1_COXwzmZboJwrOBc-18" value="" style="group" vertex="1" connectable="0" parent="0DK1_COXwzmZboJwrOBc-30">
          <mxGeometry x="24.106578947368423" y="147.53571428571428" width="134.99684210526317" height="106.07142857142857" as="geometry" />
        </mxCell>
        <mxCell id="0DK1_COXwzmZboJwrOBc-19" value="DP" style="shape=image;verticalLabelPosition=bottom;labelBackgroundColor=default;verticalAlign=top;aspect=fixed;imageAspect=0;image=data:image/png,iVBORw0KGgoAAAANSUhEUgAAASwAAAEICAMAAADSnjlnAAAC8VBMVEVHcEwaw2MZv2ETvl4axGQd02wdzmkaw2IApHgZvWAbx2Ubw2MbxGQbx2UXvWEYwGEbx2Ud0GobwmMd0msbxmQawGIbyWYczGgbwWMYtZMbwmIbx2Uaw2MXsZcbxWQbyWYZwGEZw2IbyGYcymcawmMcyWYbxGMau2AXvGEaw2Mbx2YZv2IbyGUawGIaw2MHpJ0axWMbxWQZv2IbxWQawWIZwGIbxmQYvWAbx2UOtZUawWIawWIawGIbwmMbyWYbw2MawWIcyWYe2m8awWITtZoTuZ0UtZoTtJkTs5gWxacVvKAStJgYu18UtJgTtZoUtZoUuJwVwKMTs5gVxKcUtJkUu58TspcTspcUu54Tup4SsZkVwqUVwaQUt5wRtJkSs5gUtpsVw6YTtpsTt5wVvqITtZoTs5gRs5cUtZsUup4VwKQRspgSspcTtpsNt6AStZoTtJkTspcTu58UuZ0Ss5gSspcUup4TtpsUuZ0TuJ0StJkTtJkUt5wVwaUStpsUu54Ss5gTtZoStZkSspcQsq0Us5YSspcSs5gUs5kTt5wTtJkUup4VxKYTtssVv84RusoStMkVwM8Z2OkVv84UuskVwdAXydkWvMsYzt4Vvc0VvMsWw9MXxdUWvcwWvs0YzN0UvMsVv80WwtEWwM8UuskQr8wVvcwYzd0Wv84WvcsXw9MWxNMUusgWwM8WwdAUsMoWwdEXytoWwM8Wv84VvcwXx9cVvcwVvc0VsswVv88Yy9sVv88SsckZvskVv88Tr8oVs8oWwtEWvMoUuskWw9IVvMsWwtITucgWwdEWw9IUvcwVvMoVu8kWwdAVvc0Vvs0VvcsUvcsUu8oTtJkVvcsWqNcWns0VnsoVoM4YseMYqtoUncoVnswYrN0Wn8wWotAXp9cUncsWoM4Wn8sXptUWotAUnMsVn8wVoc4VnssWoM0VnsoVncoWpNIUpskVncoTnswWo9EWpNIVoM0WnsoXqdkVn8wVn8oWncoWncsWnszaCKluAAAA+3RSTlMAbFgKo///iwEkyv//uB1E5v///+A/+///Bpb/nAnA60xi+P99/6wQFbTYMvFbkQKB/yvTUnuwN/UEZXK0yvbWuf3/tbrj35Vs//+BGBXq////YP//+0Qx++wn///WEVD//8Da/6J5GvD//zcrxQ2phiP2/2ZK78vf5o+L+v+08nWunFoLHz9yVdH26f8Skxkl0v+6SOr///+bZ/z/////gIv//18Prf/////3QM7uKuX/17+F/6OoIMr/3BYIxBw23olU9XvvMdzydG5P4bWOsJBafOdWVk7b//+ArP////9z////70XM5p7CZ5P7Olsw9/+5iv/UucO3ttGnYtEAAA/aSURBVHgB7NgHcuowEMbxpViEULUieBOR6kfvpPd2/zO93uhibJixtL8j7LT9fxBviSQwM6m0JzJ7YIBl971c3isUYS1WKkv8TlUOYA2WqPqE35FfTcAq7PBIasKfSMvaMSzFiideHv/KeftZWIIdVCROEadnwBY6v/AJp1AQfIF5bC8j6oQzSKtGE2awVtvL4wI51ekCm9LtKFyMRK8P/2H9niBcgupiMIQ/2MivEy73L35Ys6HGuMrf+GGTS5XDVf7GD7s6lYRrkVa1FLjuOggITeSU6/FznFaa0JA8vXJ751M5NEZBMHJ95zNHWt00Xd75TEzFzy046LCmNOGmSNydO7rzmZuKn3vXdz5zee/Erfh5mNr5NqUqJXDGcGrnMzUVP4/giFbBy2MopFU65djOF0LO25+A/ZI9QWiE46dbDwijQIFvffw8KYwIjdVNC2x2EOQxOpbHz7PACJF4sTh+rmQOzXD83L/6aIjj50Fh9FS5BBZKVQI0xPFzrdAQx0+rV8ftyCnr4megCM1w/GTvNBri+Ekrwi0aexbFT7c6RkMcP28SQzKInwewQsnP47ZRXR7dc0FvED9ZiL2kzOFOyPjHz2H4gjZE/nvc4yehcFdIf9QgzprlAHeFgoureIfOh1jBj/ZWL2cQZ6l04XO59rOPkaH6xRnY7P5NUWS3qp6B3ZqvgiK61XsSbDc59SmSW9X7YL9SVWN4+r0PLniQeQxr/JIEN2Q8DEv3iuCIhsKwxPM9xNrxKlPP2LMkDMnLQIzdfyPvrBob14EofO/uxmUmZ5mZmZmswji1iiG7zMzM3P+8r6MFJ86kMMn3Wj6l40/S6Ou37//m2w+8dzK/kPwv8VEF55b10xBuGJX4lV9cJi+VVRRWsc2qukaAG2agVjn8q1E1vV7ylm1YPywJroi6evz6V0tyyMutXG1WQ6MJ7kjR1Kwsl/nI/eEy08kGX4MQCxkKR7BRPU99pta1Jyz3PURDNsREOi24HFWVatS0fKc5NqzWNogHo11Zi71L3c2cqzE0pR0WxIVtKQXi4hXqM/U1fo89nV3dEB9mj1Ig3pRQD6sUfeQWVrslIU661QJxmvwv0feMV1a93SYouBeIPjwc6gv1X+KZcl4DRvpDED+yp7Va0cxFOrHIs/pFrA3aEBtcIPx43xtVM2ucwhr4LsAbxiBBM/MOa8gCj9jWkKqZH6VLWMMjo+AVMzSmauacNAlr0AHvdNeNK5rZlx5h1bfZ4B0pJhqwZs4u0tMgrAeTAUgE2TPVid4NQTMzCmvMgcSQTv85VTPrqR5WZFpAolhKgThR8SjVw5oxIGFsY5agmfmF1TdnQuKY8z//Q5z1pXZYC0EJBLoFLhCv3DQz/7CiARsoSLGIC8RNF83MPix/uA1oyIBSIB67aGbuYS1ZQEU6k+eomlk7z8IlC6BjLSua2fvWrVwWW+FXLEgG1gxFM+tniu77GbjkOhOSgRnEBSLzlsu/RL5zmFuCkBxGRRRr5idFesoddVrFLplaIHrdNDP/Ecxr2CWTC8S3dTwcqfxaio14qLQgecjg5Jpnzaxfq2By9cz6YjckE2vBq2bWtbsneLpkOsYPj5qZz60zG8KE5GI7m152M+f68rgMdsic7IFkM9q2hTVzqaa7N9EHfF0yHSlGcIF48f4agyZKcMk0ZJtSIE5UnEmJQ/ezloQDQAa3B/AALlUzM70JsW9uFA4GayG2Zn7EatiYH+9LPpAC4aKZ9Wu8pkF17ggJB4TtdGDNfFvTOTZRTFSMwkFhtq26aWZ+9x9m/nRMOCjEyAbWzJ/OqE2U4dGmGcOGA0K27Q7jUS1FuSybKGbZgINCzm9H8PwRH/u76dYmgxIOir2v+AfoVonOffxT51Tg4NIyVv7QzLyvpWtYPKwCkVVYoT8quc567O34QRaIwCrWzJc19nNJfwYPsEDUbWDNfIHfwIv9X+Sd1XrbWBRGdemXmGfoda6HGcrMzMzMzN5Koy11rDSSwwa5jcoMYXifYdoKGn6do8m6L0Tfd45X7L22r1yVv0/HJRCp5NnVtes3btbJ95Znfo/iv9FrArl1O01mvfyVevPyWbCnNfOT5G4EudNgEdvOXSkQK/ECkUB+TmeImd10o3xraw9QIGT0mhjuNXk+/062uaVVCsTs9d8DENFrsrjW5vFfkNXeIT+7WAQQCBG9JovWzhz/A6XzlyNNGEAgRPSaJBobLOJ/IadQJ/topECsTJZAFINmYoFZkgKxAiYQInrVn1P3PZcj2J4UiG9XLgIKxGojKTzoMm0ehZu+IwViPlIgtiXmag95LJobbsnmECkQi5IhEI0tAbFkHIH46cfpLhB3xdUuoPTDR3IQECkQe7QXiMclz83yeJDz5LEUCMBHGGJrhs48fTLW1S4FQq6SRArEZq0F4tnzkCfG9l7IOaTFSIHYaujLy1cB8SS4OSkQCy6umpYC8Xqcq12SiQjEmdlf4QTi8C5NZ4rqnXGudglZb97K6AIqELsNDblaMG2eEhQ8vyqX2S1HCsRcQzvevnN4qlAYEYgTAIEQ0atevHwfEE8d835EIC5NI4H40GwRC8oUiPMLp4tAzKgPXeKy8HPdckHU/lXAp3XQ0IZHN02fJeULxMYduPdrZPSqlLd5h8uHrPdSIM6twk2MyOhVIT1v0sQVQEGvFIhjSIE4qoVAdJd1tUuB6JIC8fn/XCBSV8IMcaV4TfIvOwL8wGeh2Jqhgst9ns+VY5v9chknVCCOG0rpuO5wVfhht6yC9wMnRmYeUDtNlCOujozVExEI4DsQInpVMU1UJdT8/hm+WVEvEP25yq92IRBPxV97FtCsyK0ZeG596Jb0OT5XjhCIU7JZES+JgOgVzi3LzEkCrhFZbwDdrMitGWge3LYYhzkYW7Mya+aRlIHlVFeOGEdUINZ+KgQCEL0iKZlZRpKxXsbYrGAF4rVjMxRqfvUs0qyIiRHA1gwUPZbLYCjofBBfs7IDJxDX2i1iNBS2bYnsgAA2K/tRAnHqeo4YD3l9BrRZkdHrFgNCk5flWDCvyG8RgzYrRyDV9F3T5njwnQ/46BUqEC8Dl+PCtV6CmxUZvdaYVMf7ZnEIYxaI2UiBOFnr9iafJsYjBEI2K9itGTWlzyGOE8pdvyebFXD0WkOK8nKPRyBmxNesnK9hszIUuBw70eh1RTKi17evmjl+fOd1pFnZkIDo9fK7gFgBbjAUY/Q6bNSEmw6xCkhEr+hm5ceaCES/yYog6/Y1cLMit2ZUTWPaZYlCgfh6JlIgFlQ9+9/SzOog5yYgekVtzXjUKy931QJRh41eqxKIuoJDrBQ7IhBL9I1er5isGjdoBDQrgK0Zd3I+qyYbFYgz85ACUXH02tqQYYEmArFKw+j1aWdArAGUi2zNGL4EFIjKtmbUPQmJVTL+1owT2kWv9SZrg1d6HG1WtNqa0R36rA1W+6P4oteZq4GXOx4/PWRItu9XHb3KySJiXSBHlGP4kdNFZUWvj7tCYm1ovn3VGMXJVbpEryWT9cHOiUMoo1f1WzM+ODZrfQjxzcqUBeKW5bKuh1A2K8jo9SP8ZBH4EAq2qI9eT7XlSKdDKBMowWmkQHw5FYG472VZH6zoIdQqen3t2fq/EsroFS8Q+LFR1CEUnF2obmtGxxuLtH8lFBzAR6/4ySLkIRQcn/m9GoFo8igRh1A2K2qi16Jnc7IOoWxWEAJxQNXYKOAQymYFLRBisiibmEOoOHq9/DBNCTyEslnBb83Aj40iDyH8e1Z+/HSUQLwwbdYIcgaMcsBGr1vwk0X4QyibFbBAiMkinbDDIZ2+qE0IxL3nAcGGHcMKuDFglMvcPUiB+E/0OhDCnlXwcLB8rvSXdwhlswIWiHafQTS/emvExS4pEKivih9xgR+Pxsc2bPQKflhyUQOerUiBOL8F+rAoLKTi3VOMjV5TwIdFQedVI16w37PyOfBhZRpajbjBRq/HYA/LdrqN+JkzD7o1A/WwvJKhAmz0uhHysCjX9thQArRZ+bW4u4Zv5ArCAD6l+irYl6pdhw+lC+dI8jEzMzN0YWZmZmYG+dZ+o9U+yYybM1apQhN838z+7t9Xn2k8O592y6IMwnr0jqdO05+98uNPwX6sUIjs37Mya0UGYd1/xxfyyVHLmSjcmVYK1tRczu4H0Sgs+eo0oc0xoBpXgAEiu5PT8kLzsG6WH0hHuZpLGODrjdMU7KYbs7oYWXqddVg3vyjO/Ina61WG+KjjTWCAyOg9K4Xtob/ggVXD2511zyDXRQGyLb0umZczDusR8fpjonx35BmVRD0U7vtMBogdq0iEZb9q6HWsUO3rp3CZdFbKu0VY+lVDnv5sIEpYwcedb1Cw/KX2FyOlSQdNw7r5DrlqoMGhlFW8+5nCZdBZWbJ4qgjLfNXw9FCVldxZCrfGvPQ6fwWJsOxXDTXHSsnwTxTuoHVnpXyFPiz5hkcp3zHsWSdtPE3hrDsrs2agYQWsGvrThHX88Mh+CmPfWSlsX24X1s2/rRqkXue1abk2Aph2ViZdfrFFWHLVIJ3orLNS4moUxP49K8WdZBfWLWLVoBu1pGraTiHsOyvl743CkqsGaTRS/yDGnW9TuAOXWQ0QpfkbNGGJq4YT9M9O64ct77rzFMC6s7Lu6CIgLOiqodWxmuslgFVnZf4mMgrrkWfFqkE6fyRmrSQaIMAhmwGivBcIC7xqaI8T1kqHBs/dADFzPRyWXDU00X/pcp6V/HDLgwSw6KwUCtfjYclVw3/JvdFIGYDNpvadlXVb9gNhwVcNPS5hrcS1EuCAvrNSvJSAsPCrhrHIs1a1XiHAMnVnpTwZCQu/ahjsq7KWrzdeIYC2s1IqzhVhgauG/fQ/nXWs5qOO8wmg7KwUjh6QYalWDf9tf0vMeq6LEFtVnZVJR3L6sO5/8Qv6/yrDCePwh2P6zsrMBSTCwlYNIdqcZ4PZtJ8AF2sGiJlXqsO6+e6vKMjbjZTVfNxyggCKzkppyTIRFrZqCFNzrOfdOCHwzsqSaXPwsKACBf70Ap9NZWelAI6kzSTCQlYNwfr7Egagh1vCoSI4km7VhnXLSQL0DjNGzKaDBJgxExxJD+vCuvm1t5oIUIkTNhBVoPFhFvgU7CYZVuiq4W1C1BwbiEeakOcX0yaBh1nnq8KCCxS9ERtwNQIcnFSCD7MUYd1192eEmRhmvWrjDQJMPo4eZomwkKsGQH6kfu7+P2wuoodZgWGJd3HsJ8yJRpXVkrQfGuGPrsO2pIun4mE9+thHTxPoaZ+wWtxBiMPFEn6YhYZ1/4vvEyjXbrKl6SHEFWX8MAsO6+EXCNYTsVra+SAB8rMnoYdZQFjgqsF8W+p6CXHT9gJ+mAWGJVYNgdoi1kr6BsEPM0APs85Hw7r/o49JoSNmreFxguzZAXYF9tBvfgHtwldg1BqOpwAAAABJRU5ErkJggg==;fontFamily=Inter;fontSource=https%3A%2F%2Ffonts.googleapis.com%2Fcss%3Ffamily%3DInter;" vertex="1" parent="0DK1_COXwzmZboJwrOBc-18">
          <mxGeometry x="38.57052631578948" y="19.285714285714285" width="67.49842105263158" height="57.85578947368422" as="geometry" />
        </mxCell>
        <mxCell id="0DK1_COXwzmZboJwrOBc-20" value="" style="rounded=1;whiteSpace=wrap;html=1;fillColor=none;" vertex="1" parent="0DK1_COXwzmZboJwrOBc-18">
          <mxGeometry x="9.64263157894737" y="9.642857142857142" width="125.3542105263158" height="96.42857142857143" as="geometry" />
        </mxCell>
        <mxCell id="0DK1_COXwzmZboJwrOBc-21" value="" style="aspect=fixed;sketch=0;html=1;dashed=0;whitespace=wrap;verticalLabelPosition=bottom;verticalAlign=top;fillColor=#2875E2;strokeColor=#ffffff;points=[[0.005,0.63,0],[0.1,0.2,0],[0.9,0.2,0],[0.5,0,0],[0.995,0.63,0],[0.72,0.99,0],[0.5,1,0],[0.28,0.99,0]];shape=mxgraph.kubernetes.icon2;kubernetesLabel=1;prIcon=ns" vertex="1" parent="0DK1_COXwzmZboJwrOBc-18">
          <mxGeometry width="30.133223684210527" height="28.92789473684211" as="geometry" />
        </mxCell>
        <mxCell id="0DK1_COXwzmZboJwrOBc-22" value="" style="group" vertex="1" connectable="0" parent="0DK1_COXwzmZboJwrOBc-30">
          <mxGeometry x="24.106578947368423" y="279.64285714285717" width="134.99684210526317" height="106.07142857142857" as="geometry" />
        </mxCell>
        <mxCell id="0DK1_COXwzmZboJwrOBc-23" value="DP" style="shape=image;verticalLabelPosition=bottom;labelBackgroundColor=default;verticalAlign=top;aspect=fixed;imageAspect=0;image=data:image/png,iVBORw0KGgoAAAANSUhEUgAAASwAAAEICAMAAADSnjlnAAAC8VBMVEVHcEwaw2MZv2ETvl4axGQd02wdzmkaw2IApHgZvWAbx2Ubw2MbxGQbx2UXvWEYwGEbx2Ud0GobwmMd0msbxmQawGIbyWYczGgbwWMYtZMbwmIbx2Uaw2MXsZcbxWQbyWYZwGEZw2IbyGYcymcawmMcyWYbxGMau2AXvGEaw2Mbx2YZv2IbyGUawGIaw2MHpJ0axWMbxWQZv2IbxWQawWIZwGIbxmQYvWAbx2UOtZUawWIawWIawGIbwmMbyWYbw2MawWIcyWYe2m8awWITtZoTuZ0UtZoTtJkTs5gWxacVvKAStJgYu18UtJgTtZoUtZoUuJwVwKMTs5gVxKcUtJkUu58TspcTspcUu54Tup4SsZkVwqUVwaQUt5wRtJkSs5gUtpsVw6YTtpsTt5wVvqITtZoTs5gRs5cUtZsUup4VwKQRspgSspcTtpsNt6AStZoTtJkTspcTu58UuZ0Ss5gSspcUup4TtpsUuZ0TuJ0StJkTtJkUt5wVwaUStpsUu54Ss5gTtZoStZkSspcQsq0Us5YSspcSs5gUs5kTt5wTtJkUup4VxKYTtssVv84RusoStMkVwM8Z2OkVv84UuskVwdAXydkWvMsYzt4Vvc0VvMsWw9MXxdUWvcwWvs0YzN0UvMsVv80WwtEWwM8UuskQr8wVvcwYzd0Wv84WvcsXw9MWxNMUusgWwM8WwdAUsMoWwdEXytoWwM8Wv84VvcwXx9cVvcwVvc0VsswVv88Yy9sVv88SsckZvskVv88Tr8oVs8oWwtEWvMoUuskWw9IVvMsWwtITucgWwdEWw9IUvcwVvMoVu8kWwdAVvc0Vvs0VvcsUvcsUu8oTtJkVvcsWqNcWns0VnsoVoM4YseMYqtoUncoVnswYrN0Wn8wWotAXp9cUncsWoM4Wn8sXptUWotAUnMsVn8wVoc4VnssWoM0VnsoVncoWpNIUpskVncoTnswWo9EWpNIVoM0WnsoXqdkVn8wVn8oWncoWncsWnszaCKluAAAA+3RSTlMAbFgKo///iwEkyv//uB1E5v///+A/+///Bpb/nAnA60xi+P99/6wQFbTYMvFbkQKB/yvTUnuwN/UEZXK0yvbWuf3/tbrj35Vs//+BGBXq////YP//+0Qx++wn///WEVD//8Da/6J5GvD//zcrxQ2phiP2/2ZK78vf5o+L+v+08nWunFoLHz9yVdH26f8Skxkl0v+6SOr///+bZ/z/////gIv//18Prf/////3QM7uKuX/17+F/6OoIMr/3BYIxBw23olU9XvvMdzydG5P4bWOsJBafOdWVk7b//+ArP////9z////70XM5p7CZ5P7Olsw9/+5iv/UucO3ttGnYtEAAA/aSURBVHgB7NgHcuowEMbxpViEULUieBOR6kfvpPd2/zO93uhibJixtL8j7LT9fxBviSQwM6m0JzJ7YIBl971c3isUYS1WKkv8TlUOYA2WqPqE35FfTcAq7PBIasKfSMvaMSzFiideHv/KeftZWIIdVCROEadnwBY6v/AJp1AQfIF5bC8j6oQzSKtGE2awVtvL4wI51ekCm9LtKFyMRK8P/2H9niBcgupiMIQ/2MivEy73L35Ys6HGuMrf+GGTS5XDVf7GD7s6lYRrkVa1FLjuOggITeSU6/FznFaa0JA8vXJ751M5NEZBMHJ95zNHWt00Xd75TEzFzy046LCmNOGmSNydO7rzmZuKn3vXdz5zee/Erfh5mNr5NqUqJXDGcGrnMzUVP4/giFbBy2MopFU65djOF0LO25+A/ZI9QWiE46dbDwijQIFvffw8KYwIjdVNC2x2EOQxOpbHz7PACJF4sTh+rmQOzXD83L/6aIjj50Fh9FS5BBZKVQI0xPFzrdAQx0+rV8ftyCnr4megCM1w/GTvNBri+Ekrwi0aexbFT7c6RkMcP28SQzKInwewQsnP47ZRXR7dc0FvED9ZiL2kzOFOyPjHz2H4gjZE/nvc4yehcFdIf9QgzprlAHeFgoureIfOh1jBj/ZWL2cQZ6l04XO59rOPkaH6xRnY7P5NUWS3qp6B3ZqvgiK61XsSbDc59SmSW9X7YL9SVWN4+r0PLniQeQxr/JIEN2Q8DEv3iuCIhsKwxPM9xNrxKlPP2LMkDMnLQIzdfyPvrBob14EofO/uxmUmZ5mZmZmswji1iiG7zMzM3P+8r6MFJ86kMMn3Wj6l40/S6Ou37//m2w+8dzK/kPwv8VEF55b10xBuGJX4lV9cJi+VVRRWsc2qukaAG2agVjn8q1E1vV7ylm1YPywJroi6evz6V0tyyMutXG1WQ6MJ7kjR1Kwsl/nI/eEy08kGX4MQCxkKR7BRPU99pta1Jyz3PURDNsREOi24HFWVatS0fKc5NqzWNogHo11Zi71L3c2cqzE0pR0WxIVtKQXi4hXqM/U1fo89nV3dEB9mj1Ig3pRQD6sUfeQWVrslIU661QJxmvwv0feMV1a93SYouBeIPjwc6gv1X+KZcl4DRvpDED+yp7Va0cxFOrHIs/pFrA3aEBtcIPx43xtVM2ucwhr4LsAbxiBBM/MOa8gCj9jWkKqZH6VLWMMjo+AVMzSmauacNAlr0AHvdNeNK5rZlx5h1bfZ4B0pJhqwZs4u0tMgrAeTAUgE2TPVid4NQTMzCmvMgcSQTv85VTPrqR5WZFpAolhKgThR8SjVw5oxIGFsY5agmfmF1TdnQuKY8z//Q5z1pXZYC0EJBLoFLhCv3DQz/7CiARsoSLGIC8RNF83MPix/uA1oyIBSIB67aGbuYS1ZQEU6k+eomlk7z8IlC6BjLSua2fvWrVwWW+FXLEgG1gxFM+tniu77GbjkOhOSgRnEBSLzlsu/RL5zmFuCkBxGRRRr5idFesoddVrFLplaIHrdNDP/Ecxr2CWTC8S3dTwcqfxaio14qLQgecjg5Jpnzaxfq2By9cz6YjckE2vBq2bWtbsneLpkOsYPj5qZz60zG8KE5GI7m152M+f68rgMdsic7IFkM9q2hTVzqaa7N9EHfF0yHSlGcIF48f4agyZKcMk0ZJtSIE5UnEmJQ/ezloQDQAa3B/AALlUzM70JsW9uFA4GayG2Zn7EatiYH+9LPpAC4aKZ9Wu8pkF17ggJB4TtdGDNfFvTOTZRTFSMwkFhtq26aWZ+9x9m/nRMOCjEyAbWzJ/OqE2U4dGmGcOGA0K27Q7jUS1FuSybKGbZgINCzm9H8PwRH/u76dYmgxIOir2v+AfoVonOffxT51Tg4NIyVv7QzLyvpWtYPKwCkVVYoT8quc567O34QRaIwCrWzJc19nNJfwYPsEDUbWDNfIHfwIv9X+Sd1XrbWBRGdemXmGfoda6HGcrMzMzMzN5Koy11rDSSwwa5jcoMYXifYdoKGn6do8m6L0Tfd45X7L22r1yVv0/HJRCp5NnVtes3btbJ95Znfo/iv9FrArl1O01mvfyVevPyWbCnNfOT5G4EudNgEdvOXSkQK/ECkUB+TmeImd10o3xraw9QIGT0mhjuNXk+/062uaVVCsTs9d8DENFrsrjW5vFfkNXeIT+7WAQQCBG9JovWzhz/A6XzlyNNGEAgRPSaJBobLOJ/IadQJ/topECsTJZAFINmYoFZkgKxAiYQInrVn1P3PZcj2J4UiG9XLgIKxGojKTzoMm0ehZu+IwViPlIgtiXmag95LJobbsnmECkQi5IhEI0tAbFkHIH46cfpLhB3xdUuoPTDR3IQECkQe7QXiMclz83yeJDz5LEUCMBHGGJrhs48fTLW1S4FQq6SRArEZq0F4tnzkCfG9l7IOaTFSIHYaujLy1cB8SS4OSkQCy6umpYC8Xqcq12SiQjEmdlf4QTi8C5NZ4rqnXGudglZb97K6AIqELsNDblaMG2eEhQ8vyqX2S1HCsRcQzvevnN4qlAYEYgTAIEQ0atevHwfEE8d835EIC5NI4H40GwRC8oUiPMLp4tAzKgPXeKy8HPdckHU/lXAp3XQ0IZHN02fJeULxMYduPdrZPSqlLd5h8uHrPdSIM6twk2MyOhVIT1v0sQVQEGvFIhjSIE4qoVAdJd1tUuB6JIC8fn/XCBSV8IMcaV4TfIvOwL8wGeh2Jqhgst9ns+VY5v9chknVCCOG0rpuO5wVfhht6yC9wMnRmYeUDtNlCOujozVExEI4DsQInpVMU1UJdT8/hm+WVEvEP25yq92IRBPxV97FtCsyK0ZeG596Jb0OT5XjhCIU7JZES+JgOgVzi3LzEkCrhFZbwDdrMitGWge3LYYhzkYW7Mya+aRlIHlVFeOGEdUINZ+KgQCEL0iKZlZRpKxXsbYrGAF4rVjMxRqfvUs0qyIiRHA1gwUPZbLYCjofBBfs7IDJxDX2i1iNBS2bYnsgAA2K/tRAnHqeo4YD3l9BrRZkdHrFgNCk5flWDCvyG8RgzYrRyDV9F3T5njwnQ/46BUqEC8Dl+PCtV6CmxUZvdaYVMf7ZnEIYxaI2UiBOFnr9iafJsYjBEI2K9itGTWlzyGOE8pdvyebFXD0WkOK8nKPRyBmxNesnK9hszIUuBw70eh1RTKi17evmjl+fOd1pFnZkIDo9fK7gFgBbjAUY/Q6bNSEmw6xCkhEr+hm5ceaCES/yYog6/Y1cLMit2ZUTWPaZYlCgfh6JlIgFlQ9+9/SzOog5yYgekVtzXjUKy931QJRh41eqxKIuoJDrBQ7IhBL9I1er5isGjdoBDQrgK0Zd3I+qyYbFYgz85ACUXH02tqQYYEmArFKw+j1aWdArAGUi2zNGL4EFIjKtmbUPQmJVTL+1owT2kWv9SZrg1d6HG1WtNqa0R36rA1W+6P4oteZq4GXOx4/PWRItu9XHb3KySJiXSBHlGP4kdNFZUWvj7tCYm1ovn3VGMXJVbpEryWT9cHOiUMoo1f1WzM+ODZrfQjxzcqUBeKW5bKuh1A2K8jo9SP8ZBH4EAq2qI9eT7XlSKdDKBMowWmkQHw5FYG472VZH6zoIdQqen3t2fq/EsroFS8Q+LFR1CEUnF2obmtGxxuLtH8lFBzAR6/4ySLkIRQcn/m9GoFo8igRh1A2K2qi16Jnc7IOoWxWEAJxQNXYKOAQymYFLRBisiibmEOoOHq9/DBNCTyEslnBb83Aj40iDyH8e1Z+/HSUQLwwbdYIcgaMcsBGr1vwk0X4QyibFbBAiMkinbDDIZ2+qE0IxL3nAcGGHcMKuDFglMvcPUiB+E/0OhDCnlXwcLB8rvSXdwhlswIWiHafQTS/emvExS4pEKivih9xgR+Pxsc2bPQKflhyUQOerUiBOL8F+rAoLKTi3VOMjV5TwIdFQedVI16w37PyOfBhZRpajbjBRq/HYA/LdrqN+JkzD7o1A/WwvJKhAmz0uhHysCjX9thQArRZ+bW4u4Zv5ArCAD6l+irYl6pdhw+lC+dI8jEzMzN0YWZmZmYG+dZ+o9U+yYybM1apQhN838z+7t9Xn2k8O592y6IMwnr0jqdO05+98uNPwX6sUIjs37Mya0UGYd1/xxfyyVHLmSjcmVYK1tRczu4H0Sgs+eo0oc0xoBpXgAEiu5PT8kLzsG6WH0hHuZpLGODrjdMU7KYbs7oYWXqddVg3vyjO/Ina61WG+KjjTWCAyOg9K4Xtob/ggVXD2511zyDXRQGyLb0umZczDusR8fpjonx35BmVRD0U7vtMBogdq0iEZb9q6HWsUO3rp3CZdFbKu0VY+lVDnv5sIEpYwcedb1Cw/KX2FyOlSQdNw7r5DrlqoMGhlFW8+5nCZdBZWbJ4qgjLfNXw9FCVldxZCrfGvPQ6fwWJsOxXDTXHSsnwTxTuoHVnpXyFPiz5hkcp3zHsWSdtPE3hrDsrs2agYQWsGvrThHX88Mh+CmPfWSlsX24X1s2/rRqkXue1abk2Aph2ViZdfrFFWHLVIJ3orLNS4moUxP49K8WdZBfWLWLVoBu1pGraTiHsOyvl743CkqsGaTRS/yDGnW9TuAOXWQ0QpfkbNGGJq4YT9M9O64ct77rzFMC6s7Lu6CIgLOiqodWxmuslgFVnZf4mMgrrkWfFqkE6fyRmrSQaIMAhmwGivBcIC7xqaI8T1kqHBs/dADFzPRyWXDU00X/pcp6V/HDLgwSw6KwUCtfjYclVw3/JvdFIGYDNpvadlXVb9gNhwVcNPS5hrcS1EuCAvrNSvJSAsPCrhrHIs1a1XiHAMnVnpTwZCQu/ahjsq7KWrzdeIYC2s1IqzhVhgauG/fQ/nXWs5qOO8wmg7KwUjh6QYalWDf9tf0vMeq6LEFtVnZVJR3L6sO5/8Qv6/yrDCePwh2P6zsrMBSTCwlYNIdqcZ4PZtJ8AF2sGiJlXqsO6+e6vKMjbjZTVfNxyggCKzkppyTIRFrZqCFNzrOfdOCHwzsqSaXPwsKACBf70Ap9NZWelAI6kzSTCQlYNwfr7Egagh1vCoSI4km7VhnXLSQL0DjNGzKaDBJgxExxJD+vCuvm1t5oIUIkTNhBVoPFhFvgU7CYZVuiq4W1C1BwbiEeakOcX0yaBh1nnq8KCCxS9ERtwNQIcnFSCD7MUYd1192eEmRhmvWrjDQJMPo4eZomwkKsGQH6kfu7+P2wuoodZgWGJd3HsJ8yJRpXVkrQfGuGPrsO2pIun4mE9+thHTxPoaZ+wWtxBiMPFEn6YhYZ1/4vvEyjXbrKl6SHEFWX8MAsO6+EXCNYTsVra+SAB8rMnoYdZQFjgqsF8W+p6CXHT9gJ+mAWGJVYNgdoi1kr6BsEPM0APs85Hw7r/o49JoSNmreFxguzZAXYF9tBvfgHtwldg1BqOpwAAAABJRU5ErkJggg==;fontFamily=Inter;fontSource=https%3A%2F%2Ffonts.googleapis.com%2Fcss%3Ffamily%3DInter;" vertex="1" parent="0DK1_COXwzmZboJwrOBc-22">
          <mxGeometry x="38.57052631578948" y="19.285714285714285" width="67.49842105263158" height="57.85578947368422" as="geometry" />
        </mxCell>
        <mxCell id="0DK1_COXwzmZboJwrOBc-24" value="" style="rounded=1;whiteSpace=wrap;html=1;fillColor=none;" vertex="1" parent="0DK1_COXwzmZboJwrOBc-22">
          <mxGeometry x="9.64263157894737" y="9.642857142857142" width="125.3542105263158" height="96.42857142857143" as="geometry" />
        </mxCell>
        <mxCell id="0DK1_COXwzmZboJwrOBc-25" value="" style="aspect=fixed;sketch=0;html=1;dashed=0;whitespace=wrap;verticalLabelPosition=bottom;verticalAlign=top;fillColor=#2875E2;strokeColor=#ffffff;points=[[0.005,0.63,0],[0.1,0.2,0],[0.9,0.2,0],[0.5,0,0],[0.995,0.63,0],[0.72,0.99,0],[0.5,1,0],[0.28,0.99,0]];shape=mxgraph.kubernetes.icon2;kubernetesLabel=1;prIcon=ns" vertex="1" parent="0DK1_COXwzmZboJwrOBc-22">
          <mxGeometry width="30.133223684210527" height="28.92789473684211" as="geometry" />
        </mxCell>
        <mxCell id="0DK1_COXwzmZboJwrOBc-6" value="" style="rounded=1;whiteSpace=wrap;html=1;rotation=-90;dashed=1;" vertex="1" parent="1">
          <mxGeometry x="120" y="320" width="420" height="190" as="geometry" />
        </mxCell>
        <mxCell id="0DK1_COXwzmZboJwrOBc-28" style="edgeStyle=entityRelationEdgeStyle;rounded=1;orthogonalLoop=1;jettySize=auto;html=1;dashed=1;flowAnimation=1;" edge="1" parent="1" source="0DK1_COXwzmZboJwrOBc-7" target="0DK1_COXwzmZboJwrOBc-16">
          <mxGeometry relative="1" as="geometry" />
        </mxCell>
        <mxCell id="0DK1_COXwzmZboJwrOBc-29" style="edgeStyle=entityRelationEdgeStyle;rounded=1;orthogonalLoop=1;jettySize=auto;html=1;entryX=0;entryY=0.5;entryDx=0;entryDy=0;dashed=1;flowAnimation=1;" edge="1" parent="1" source="0DK1_COXwzmZboJwrOBc-7" target="0DK1_COXwzmZboJwrOBc-24">
          <mxGeometry relative="1" as="geometry" />
        </mxCell>
        <mxCell id="0DK1_COXwzmZboJwrOBc-35" style="edgeStyle=orthogonalEdgeStyle;rounded=0;orthogonalLoop=1;jettySize=auto;html=1;dashed=1;curved=1;flowAnimation=1;" edge="1" parent="1" source="0DK1_COXwzmZboJwrOBc-7" target="0DK1_COXwzmZboJwrOBc-31">
          <mxGeometry relative="1" as="geometry" />
        </mxCell>
        <mxCell id="0DK1_COXwzmZboJwrOBc-7" value="&lt;font data-font-src=&quot;https://fonts.googleapis.com/css?family=Inter&quot; face=&quot;Inter&quot;&gt;KIC&lt;/font&gt;" style="aspect=fixed;sketch=0;html=1;dashed=0;whitespace=wrap;verticalLabelPosition=bottom;verticalAlign=top;fillColor=#FF6666;strokeColor=#ffffff;points=[[0.005,0.63,0],[0.1,0.2,0],[0.9,0.2,0],[0.5,0,0],[0.995,0.63,0],[0.72,0.99,0],[0.5,1,0],[0.28,0.99,0]];shape=mxgraph.kubernetes.icon2;prIcon=ing" vertex="1" parent="1">
          <mxGeometry x="305" y="260" width="50" height="48" as="geometry" />
        </mxCell>
        <mxCell id="0DK1_COXwzmZboJwrOBc-9" value="&lt;div&gt;&lt;font data-font-src=&quot;https://fonts.googleapis.com/css?family=Inter&quot; face=&quot;Inter&quot;&gt;KIC&lt;br&gt;&lt;/font&gt;&lt;/div&gt;&lt;div&gt;&lt;font data-font-src=&quot;https://fonts.googleapis.com/css?family=Inter&quot; face=&quot;Inter&quot;&gt;(Standby)&lt;br&gt;&lt;/font&gt;&lt;/div&gt;" style="aspect=fixed;sketch=0;html=1;dashed=0;whitespace=wrap;verticalLabelPosition=bottom;verticalAlign=top;fillColor=#FF6666;strokeColor=#ffffff;points=[[0.005,0.63,0],[0.1,0.2,0],[0.9,0.2,0],[0.5,0,0],[0.995,0.63,0],[0.72,0.99,0],[0.5,1,0],[0.28,0.99,0]];shape=mxgraph.kubernetes.icon2;prIcon=ing" vertex="1" parent="1">
          <mxGeometry x="305" y="370" width="50" height="48" as="geometry" />
        </mxCell>
        <mxCell id="0DK1_COXwzmZboJwrOBc-10" value="&lt;div&gt;&lt;font data-font-src=&quot;https://fonts.googleapis.com/css?family=Inter&quot; face=&quot;Inter&quot;&gt;KIC&lt;br&gt;&lt;/font&gt;&lt;/div&gt;&lt;div&gt;&lt;font data-font-src=&quot;https://fonts.googleapis.com/css?family=Inter&quot; face=&quot;Inter&quot;&gt;(Standby)&lt;br&gt;&lt;/font&gt;&lt;/div&gt;" style="aspect=fixed;sketch=0;html=1;dashed=0;whitespace=wrap;verticalLabelPosition=bottom;verticalAlign=top;fillColor=#FF6666;strokeColor=#ffffff;points=[[0.005,0.63,0],[0.1,0.2,0],[0.9,0.2,0],[0.5,0,0],[0.995,0.63,0],[0.72,0.99,0],[0.5,1,0],[0.28,0.99,0]];shape=mxgraph.kubernetes.icon2;prIcon=ing" vertex="1" parent="1">
          <mxGeometry x="305" y="480" width="50" height="48" as="geometry" />
        </mxCell>
        <mxCell id="0DK1_COXwzmZboJwrOBc-11" value="&lt;font data-font-src=&quot;https://fonts.googleapis.com/css?family=Inter&quot; face=&quot;Inter&quot;&gt;Deployment with Leader Election Pattern&lt;br&gt;&lt;/font&gt;" style="rounded=1;whiteSpace=wrap;html=1;dashed=1;" vertex="1" parent="1">
          <mxGeometry x="270" y="600" width="120" height="60" as="geometry" />
        </mxCell>
        <mxCell id="0DK1_COXwzmZboJwrOBc-27" style="edgeStyle=entityRelationEdgeStyle;rounded=1;orthogonalLoop=1;jettySize=auto;html=1;entryX=0.005;entryY=0.63;entryDx=0;entryDy=0;entryPerimeter=0;dashed=1;flowAnimation=1;" edge="1" parent="1" source="0DK1_COXwzmZboJwrOBc-7" target="0DK1_COXwzmZboJwrOBc-21">
          <mxGeometry relative="1" as="geometry" />
        </mxCell>
        <mxCell id="0DK1_COXwzmZboJwrOBc-34" value="" style="group" vertex="1" connectable="0" parent="1">
          <mxGeometry x="100" y="442" width="89.99999999999999" height="108" as="geometry" />
        </mxCell>
        <mxCell id="0DK1_COXwzmZboJwrOBc-32" value="API SERVER" style="text;html=1;align=center;verticalAlign=middle;resizable=0;points=[];autosize=1;strokeColor=none;fillColor=none;fontFamily=Inter;fontSource=https%3A%2F%2Ffonts.googleapis.com%2Fcss%3Ffamily%3DInter;" vertex="1" parent="0DK1_COXwzmZboJwrOBc-34">
          <mxGeometry x="-15.240000000000009" y="78" width="90" height="30" as="geometry" />
        </mxCell>
        <mxCell id="0DK1_COXwzmZboJwrOBc-33" value="" style="group" vertex="1" connectable="0" parent="0DK1_COXwzmZboJwrOBc-34">
          <mxGeometry x="-9.995000000000005" width="79.50999999999999" height="71.25" as="geometry" />
        </mxCell>
        <mxCell id="0DK1_COXwzmZboJwrOBc-31" value="" style="rounded=1;whiteSpace=wrap;html=1;rotation=-90;dashed=1;strokeColor=none;fillColor=#1A1A1A;" vertex="1" parent="0DK1_COXwzmZboJwrOBc-33">
          <mxGeometry x="4.1299999999999955" y="-4.1299999999999955" width="71.25" height="79.51" as="geometry" />
        </mxCell>
        <mxCell id="0DK1_COXwzmZboJwrOBc-1" value="" style="aspect=fixed;sketch=0;html=1;dashed=0;whitespace=wrap;verticalLabelPosition=bottom;verticalAlign=top;fillColor=#2875E2;strokeColor=#ffffff;points=[[0.005,0.63,0],[0.1,0.2,0],[0.9,0.2,0],[0.5,0,0],[0.995,0.63,0],[0.72,0.99,0],[0.5,1,0],[0.28,0.99,0]];shape=mxgraph.kubernetes.icon2;kubernetesLabel=1;prIcon=api" vertex="1" parent="0DK1_COXwzmZboJwrOBc-33">
          <mxGeometry x="16.64" y="13.439999999999998" width="46.22" height="44.37" as="geometry" />
        </mxCell>
        <mxCell id="0DK1_COXwzmZboJwrOBc-36" value="Watch" style="text;html=1;align=center;verticalAlign=middle;resizable=0;points=[];autosize=1;strokeColor=none;fillColor=none;" vertex="1" parent="1">
          <mxGeometry x="115" y="308" width="60" height="30" as="geometry" />
        </mxCell>
        <mxCell id="0DK1_COXwzmZboJwrOBc-38" value="&lt;div&gt;&lt;font data-font-src=&quot;https://fonts.googleapis.com/css?family=Inter&quot; face=&quot;Inter&quot;&gt;Legenda&lt;/font&gt;&lt;/div&gt;" style="text;html=1;align=center;verticalAlign=middle;resizable=0;points=[];autosize=1;strokeColor=none;fillColor=none;" vertex="1" parent="1">
          <mxGeometry x="90" y="650" width="70" height="30" as="geometry" />
        </mxCell>
        <mxCell id="0DK1_COXwzmZboJwrOBc-40" value="" style="rounded=0;whiteSpace=wrap;html=1;fillColor=#FF6666;flipH=1;flipV=1;" vertex="1" parent="1">
          <mxGeometry x="100" y="685" width="20" height="20" as="geometry" />
        </mxCell>
        <mxCell id="0DK1_COXwzmZboJwrOBc-42" value="&lt;font data-font-src=&quot;https://fonts.googleapis.com/css?family=Inter&quot; face=&quot;Inter&quot;&gt;KIC: Kong Ingress Controller&lt;br&gt;&lt;/font&gt;" style="text;html=1;align=center;verticalAlign=middle;resizable=0;points=[];autosize=1;strokeColor=none;fillColor=none;" vertex="1" parent="1">
          <mxGeometry x="120" y="680" width="180" height="30" as="geometry" />
        </mxCell>
        <mxCell id="0DK1_COXwzmZboJwrOBc-43" value="" style="rounded=0;whiteSpace=wrap;html=1;fillColor=#00FF80;fillStyle=auto;gradientColor=#0066CC;strokeColor=#000000;flipH=1;flipV=1;" vertex="1" parent="1">
          <mxGeometry x="100" y="715" width="20" height="20" as="geometry" />
        </mxCell>
        <mxCell id="0DK1_COXwzmZboJwrOBc-45" value="&lt;font face=&quot;Inter&quot;&gt;DP: Data plane&lt;/font&gt;" style="text;html=1;align=center;verticalAlign=middle;resizable=0;points=[];autosize=1;strokeColor=none;fillColor=none;" vertex="1" parent="1">
          <mxGeometry x="120" y="710" width="110" height="30" as="geometry" />
        </mxCell>
        <mxCell id="0DK1_COXwzmZboJwrOBc-46" value="" style="rounded=0;whiteSpace=wrap;html=1;fillColor=#2875E2;fillStyle=auto;gradientColor=none;strokeColor=#000000;flipH=1;flipV=1;" vertex="1" parent="1">
          <mxGeometry x="100" y="745" width="20" height="20" as="geometry" />
        </mxCell>
        <mxCell id="0DK1_COXwzmZboJwrOBc-47" value="&lt;font face=&quot;Inter&quot;&gt;NS: Namespace&lt;/font&gt;" style="text;html=1;align=center;verticalAlign=middle;resizable=0;points=[];autosize=1;strokeColor=none;fillColor=none;" vertex="1" parent="1">
          <mxGeometry x="120" y="740" width="110" height="30" as="geometry" />
        </mxCell>
      </root>
    </mxGraphModel>
  </diagram>
</mxfile>
